<svg width="179" height="105" viewBox="0 0 179 105" fill="none" xmlns="http://www.w3.org/2000/svg">
<g id="Prof_Testium 1">
<path id="Vector" d="M10.05 46.9737H2.84907C2.64034 46.9737 2.53598 46.8656 2.53598 46.6498L2.66121 1.09014C2.66121 0.91744 2.74469 0.831091 2.91167 0.831091H15.2471C19.1711 0.831091 22.2707 2.07235 24.5457 4.55489C26.8417 7.01581 27.9897 10.3726 27.9897 14.6253C27.9897 17.7339 27.3948 20.443 26.205 22.7529C24.9945 25.0411 23.429 26.8112 21.5088 28.0632C19.5886 29.3154 17.5013 29.9413 15.2471 29.9413H10.3631V46.6498C10.3631 46.8656 10.2587 46.9737 10.05 46.9737ZM15.2471 8.69962L10.3631 8.76439V21.911H15.2471C16.6038 21.911 17.7831 21.2418 18.785 19.9033C19.7869 18.5434 20.2878 16.784 20.2878 14.6253C20.2878 12.8983 19.839 11.4844 18.9415 10.3834C18.044 9.26088 16.8126 8.69962 15.2471 8.69962ZM39.3546 46.9737H32.091C31.924 46.9737 31.8406 46.8656 31.8406 46.6498L31.9657 1.09014C31.9657 0.91744 32.0493 0.831091 32.2163 0.831091H45.178C47.4946 0.831091 49.6236 1.41395 51.5648 2.57965C53.5058 3.74536 55.0505 5.31042 56.1985 7.27486C57.3674 9.2393 57.9517 11.4628 57.9517 13.9453C57.9517 15.5643 57.7117 17.0323 57.2316 18.3491C56.7516 19.6659 56.1878 20.7776 55.541 21.6843C54.9148 22.591 54.3407 23.2602 53.8189 23.6919C56.1357 26.3471 57.2942 29.4666 57.2942 33.0498L57.3569 46.6498C57.3569 46.8656 57.2525 46.9737 57.0438 46.9737H49.7802C49.6132 46.9737 49.5298 46.909 49.5298 46.7794V33.0498C49.5298 31.4525 48.987 30.0709 47.9017 28.9051C46.8163 27.7396 45.4804 27.1566 43.8943 27.1566H39.6677L39.605 46.6498C39.605 46.8656 39.5216 46.9737 39.3546 46.9737ZM45.178 8.76439H39.6677V19.191H45.178C46.4927 19.191 47.6616 18.6837 48.6845 17.6691C49.7281 16.6545 50.2498 15.4132 50.2498 13.9453C50.2498 12.5421 49.7489 11.3332 48.747 10.3187C47.7452 9.28248 46.5555 8.76439 45.178 8.76439ZM74.639 47.6214C72.3638 47.6214 70.2663 47.0168 68.3459 45.8079C66.4467 44.599 64.9126 42.9909 63.7438 40.9831C62.5958 38.9542 62.0216 36.7306 62.0216 34.3129L62.0844 13.2977C62.0844 10.8368 62.6583 8.62405 63.8063 6.65964C64.9335 4.67362 66.4571 3.08696 68.3775 1.89966C70.2976 0.690775 72.3849 0.0863342 74.639 0.0863342C76.9767 0.0863342 79.0745 0.679982 80.9321 1.86728C82.8105 3.05457 84.3133 4.65201 85.4404 6.65964C86.5884 8.64566 87.1623 10.8583 87.1623 13.2977L87.2248 34.3129C87.2248 36.7306 86.6614 38.9434 85.5342 40.9508C84.3862 42.9801 82.8626 44.599 80.9633 45.8079C79.064 47.0168 76.9558 47.6214 74.639 47.6214ZM74.639 39.6231C75.9331 39.6231 77.0603 39.0835 78.0202 38.0042C78.9804 36.9033 79.4605 35.6729 79.4605 34.3129L79.398 13.2977C79.398 11.8298 78.9492 10.5885 78.0515 9.57389C77.1541 8.55931 76.0165 8.05199 74.639 8.05199C73.324 8.05199 72.1969 8.54851 71.2578 9.5415C70.3184 10.5345 69.8487 11.7866 69.8487 13.2977V34.3129C69.8487 35.7591 70.3184 37.0111 71.2578 38.0688C72.1969 39.105 73.324 39.6231 74.639 39.6231ZM99.5916 46.9737H92.3907C92.1821 46.9737 92.0776 46.8656 92.0776 46.6498L92.2029 1.09014C92.2029 0.91744 92.2865 0.831091 92.4535 0.831091H112.992C113.2 0.831091 113.305 0.91744 113.305 1.09014V8.57009C113.305 8.74278 113.221 8.82913 113.054 8.82913H99.9047V19.1262H113.054C113.221 19.1262 113.305 19.2342 113.305 19.45L113.367 26.9624C113.367 27.1351 113.263 27.2214 113.054 27.2214H99.9047V46.6498C99.9047 46.8656 99.8005 46.9737 99.5916 46.9737ZM16.2177 102.237H8.98549C8.79764 102.237 8.70371 102.129 8.70371 101.913V64.0923H0.375705C0.166983 64.0923 0.0626221 63.9842 0.0626221 63.7684L0.125239 56.3532C0.125239 56.1805 0.208727 56.0943 0.375705 56.0943H24.7336C24.9632 56.0943 25.078 56.1805 25.078 56.3532V63.7684C25.078 63.9842 24.9945 64.0923 24.8275 64.0923H16.4055L16.4682 101.913C16.4682 102.129 16.3847 102.237 16.2177 102.237ZM47.2443 102.237H26.5181C26.3512 102.237 26.2677 102.129 26.2677 101.913L26.3303 56.3532C26.3303 56.1805 26.4138 56.0943 26.5808 56.0943H47.1817C47.3487 56.0943 47.4321 56.2021 47.4321 56.4181V63.8334C47.4321 64.0061 47.3487 64.0923 47.1817 64.0923H34.0322V74.4541H47.1817C47.3487 74.4541 47.4321 74.5406 47.4321 74.7133L47.4946 82.2255C47.4946 82.3982 47.4112 82.4847 47.2443 82.4847H34.0322V94.077H47.2443C47.4112 94.077 47.4946 94.1847 47.4946 94.4008V101.978C47.4946 102.151 47.4112 102.237 47.2443 102.237ZM64.0882 102.885C61.813 102.885 59.7155 102.28 57.7951 101.071C55.8958 99.8622 54.3722 98.254 53.2242 96.2463C52.097 94.2173 51.5336 91.9938 51.5336 89.576V86.5322C51.5336 86.2948 51.6378 86.176 51.8464 86.176H59.0476C59.2145 86.176 59.2979 86.2948 59.2979 86.5322V89.576C59.2979 91.0223 59.7676 92.2743 60.7069 93.332C61.646 94.3682 62.7732 94.8863 64.0882 94.8863C65.424 94.8863 66.5616 94.3574 67.5006 93.2997C68.44 92.2204 68.9097 90.9792 68.9097 89.576C68.9097 87.9568 67.887 86.5429 65.8413 85.334C65.5073 85.1182 65.0692 84.8591 64.5263 84.557C64.0045 84.2332 63.3786 83.8663 62.6479 83.4559C61.9174 83.0459 61.2079 82.6466 60.5188 82.2578C59.8301 81.8478 59.1622 81.4593 58.5151 81.0923C56.1774 79.6674 54.4347 77.8865 53.2867 75.7495C52.1595 73.5906 51.5961 71.1729 51.5961 68.4962C51.5961 66.035 52.1804 63.8118 53.3495 61.8256C54.5181 59.8613 56.042 58.307 57.9204 57.1628C59.8197 55.997 61.8758 55.4143 64.0882 55.4143C66.3631 55.4143 68.4504 55.997 70.3497 57.1628C72.2492 58.3501 73.7624 59.926 74.8893 61.8903C76.0373 63.8549 76.6115 66.0566 76.6115 68.4962V73.936C76.6115 74.1087 76.5279 74.1952 76.3609 74.1952H69.16C68.993 74.1952 68.9097 74.1087 68.9097 73.936L68.8469 68.4962C68.8469 66.9419 68.3775 65.6789 67.4381 64.7076C66.4988 63.7361 65.3823 63.2503 64.0882 63.2503C62.7732 63.2503 61.646 63.7684 60.7069 64.8046C59.7676 65.8408 59.2979 67.0712 59.2979 68.4962C59.2979 69.9424 59.5902 71.1513 60.1745 72.1228C60.7799 73.0941 61.8758 74.0225 63.4619 74.9075C63.6289 74.9938 64.0149 75.2098 64.6203 75.5552C65.2257 75.9006 65.8936 76.2891 66.6241 76.7207C67.3756 77.1311 68.0539 77.5088 68.6591 77.8542C69.2645 78.178 69.6297 78.3723 69.755 78.4369C71.8837 79.6674 73.5642 81.1785 74.7956 82.9702C76.0478 84.7621 76.674 86.964 76.674 89.576C76.674 92.1016 76.1105 94.3682 74.9834 96.3759C73.8354 98.3836 72.3117 99.9702 70.4125 101.136C68.5129 102.301 66.405 102.885 64.0882 102.885ZM94.8016 102.237H87.5692C87.3814 102.237 87.2876 102.129 87.2876 101.913V64.0923H78.9596C78.7509 64.0923 78.6465 63.9842 78.6465 63.7684L78.709 56.3532C78.709 56.1805 78.7926 56.0943 78.9596 56.0943H103.317C103.547 56.0943 103.662 56.1805 103.662 56.3532V63.7684C103.662 63.9842 103.578 64.0923 103.411 64.0923H94.9894L95.0519 101.913C95.0519 102.129 94.9686 102.237 94.8016 102.237ZM114.369 102.237H107.106C106.897 102.237 106.793 102.129 106.793 101.913L106.855 56.3532C106.855 56.1805 106.939 56.0943 107.106 56.0943H114.307C114.474 56.0943 114.557 56.1805 114.557 56.3532L114.62 101.913C114.62 102.129 114.536 102.237 114.369 102.237ZM132.058 102.885C129.804 102.885 127.717 102.28 125.797 101.071C123.877 99.8622 122.342 98.2432 121.194 96.214C120.067 94.1632 119.504 91.9289 119.504 89.5111L119.629 56.3532C119.629 56.1805 119.713 56.0943 119.88 56.0943H127.08C127.247 56.0943 127.331 56.1805 127.331 56.3532V89.5111C127.331 91.0007 127.79 92.2743 128.708 93.332C129.627 94.3682 130.743 94.8863 132.058 94.8863C133.436 94.8863 134.584 94.3682 135.502 93.332C136.421 92.2743 136.88 91.0007 136.88 89.5111V56.3532C136.88 56.1805 136.963 56.0943 137.13 56.0943H144.331C144.498 56.0943 144.582 56.1805 144.582 56.3532L144.707 89.5111C144.707 91.9504 144.143 94.1955 143.016 96.2463C141.868 98.2756 140.345 99.8945 138.445 101.103C136.546 102.291 134.417 102.885 132.058 102.885ZM157.262 102.237H149.998C149.831 102.237 149.748 102.129 149.748 101.913L149.873 56.3532C149.873 56.1805 149.956 56.0943 150.123 56.0943H157.95C158.117 56.0943 158.264 56.1805 158.389 56.3532L164.243 65.0961L170.067 56.3532C170.192 56.1805 170.348 56.0943 170.536 56.0943H178.395C178.583 56.0943 178.676 56.1805 178.676 56.3532L178.802 101.913C178.802 102.129 178.718 102.237 178.551 102.237H171.288C171.121 102.237 171.037 102.129 171.037 101.913L170.975 68.0751L164.243 78.178L157.575 68.0751L157.512 101.913C157.512 102.129 157.429 102.237 157.262 102.237Z" fill="#094298"/>
</g>
</svg>
