<svg id="Layer_1" data-name="Layer 1" xmlns="http://www.w3.org/2000/svg" viewBox="0 0 380.28 387.72"><defs><style>.cls-1,.cls-2{fill:#094298;stroke:#094298;stroke-miterlimit:10;}.cls-1{stroke-width:22px;}.cls-2{stroke-width:19px;}</style></defs><path class="cls-1" d="M245.69,246.58a15.21,15.21,0,0,0-15.18,15.24v91.47H48.36V48.48H230.51v91.43a15.18,15.18,0,1,0,30.36,0V33.23A15.21,15.21,0,0,0,245.69,18H33.17A15.21,15.21,0,0,0,18,33.23h0V368.49a15.21,15.21,0,0,0,15.17,15.23H245.69a15.21,15.21,0,0,0,15.21-15.21V261.86a15.21,15.21,0,0,0-15.14-15.28Z" transform="translate(-7 -7)"/><path class="cls-2" d="M374.9,208.94c.13-.15.23-.3.35-.45s.27-.35.4-.54.22-.37.33-.56.21-.33.3-.51a4.53,4.53,0,0,0,.28-.59c.1-.21.17-.36.25-.55s.14-.38.21-.59.15-.39.21-.59.11-.4.15-.6.11-.41.15-.62.08-.45.1-.67a4.19,4.19,0,0,1,.08-.56,11.61,11.61,0,0,0,0-2.5,3.31,3.31,0,0,0-.08-.55,5.16,5.16,0,0,0-.1-.67,2.67,2.67,0,0,0-.15-.62c-.05-.21-.09-.39-.15-.6s-.14-.4-.21-.59-.13-.38-.21-.56l-.25-.55c-.08-.18-.18-.39-.28-.59s-.2-.34-.3-.51-.21-.37-.33-.55-.27-.37-.4-.54-.22-.31-.35-.46a10.05,10.05,0,0,0-.82-.91h0l-50.61-50.65a12.66,12.66,0,1,0-17.91,17.91l29,29H225.9a12.66,12.66,0,0,0,0,25.32H334.6l-29,29a12.66,12.66,0,0,0,17.91,17.91h0l50.59-50.54h0A11.71,11.71,0,0,0,374.9,208.94Z" transform="translate(-7 -7)"/></svg>