<svg id="Слой_1" data-name="Слой 1" xmlns="http://www.w3.org/2000/svg" viewBox="0 0 468.51 463.05"><defs><style>.cls-1{isolation:isolate;}.cls-2{fill:#0032b7;}.cls-3{fill:#002fad;}.cls-4{fill:#0030b1;}.cls-5{fill:#002da4;}.cls-6{fill:#001e6e;}</style></defs><g class="cls-1"><polygon class="cls-2" points="0.93 152.52 193.4 0.87 256.17 219.91 87.03 377.38 0.93 152.52"/><polygon class="cls-3" points="87.03 377.38 256.17 219.91 467.64 280.82 300.7 462.07 87.03 377.38"/><polygon class="cls-4" points="228.14 218.72 419.46 43.36 467.64 280.82 300.7 462.07 228.14 218.72"/><polygon class="cls-5" points="0.93 152.52 193.4 0.87 419.46 43.36 228.14 218.72 0.93 152.52"/><polygon class="cls-6" points="87.03 377.38 0.93 152.52 228.14 218.72 300.7 462.07 87.03 377.38"/><polygon class="cls-4" points="228.69 218.1 420.08 42.68 468.51 281.7 301.65 463.05 228.69 218.1"/><polygon class="cls-5" points="0 151.56 192.55 0 420.08 42.68 228.69 218.1 0 151.56"/><path class="cls-6" d="M987.41,761.64l-215-85.27L685.76,450.15,914.45,516.7ZM686.69,451.12,772.78,676l213.68,84.69L913.9,517.31,686.69,451.12" transform="translate(-685.76 -298.59)"/></g></svg>