<svg id="Слой_1" data-name="Слой 1" xmlns="http://www.w3.org/2000/svg" viewBox="0 0 423.83 393.1"><defs><style>.cls-1{isolation:isolate;}.cls-2{fill:#0032b8;}.cls-3{fill:#002a98;}.cls-4{fill:#002381;}.cls-5{fill:#001c67;}</style></defs><g class="cls-1"><polygon class="cls-2" points="0.43 48.29 252.12 0.88 280.99 254.93 40.8 317.39 0.43 48.29"/><polygon class="cls-3" points="40.8 317.39 280.99 254.93 423.23 314.39 153.9 391.89 40.8 317.39"/><polygon class="cls-2" points="111.73 79.19 395.8 21.8 423.23 314.39 153.9 391.89 111.73 79.19"/><polygon class="cls-4" points="0.43 48.29 252.12 0.88 395.8 21.8 111.73 79.19 0.43 48.29"/><polygon class="cls-5" points="40.8 317.39 0.43 48.29 111.73 79.19 153.9 391.89 40.8 317.39"/><polygon class="cls-2" points="112.01 78.28 396.24 20.92 423.82 315.49 154.44 393.1 112.01 78.28"/><polygon class="cls-4" points="0 47.33 251.64 0 396.24 20.92 112.01 78.28 0 47.33"/><path class="cls-5" d="M877,732.5,763.14,657.4,722.52,386.72l112,30.95ZM723,387.69l40.37,269.09,113.1,74.51-42.16-312.7L723,387.69" transform="translate(-722.52 -339.4)"/></g></svg>