<svg width="313" height="272" viewBox="0 0 313 272" fill="none" xmlns="http://www.w3.org/2000/svg">
<g clip-path="url(#clip0_132_361)">
<path d="M0.396057 73.9844L159.789 18.1499L210.611 184.06L59.0047 250.348L0.396057 73.9844Z" fill="#0034BE"/>
<path d="M59.0047 250.348L210.611 184.06L312.456 193.021L143.712 271.294L59.0047 250.348Z" fill="#002485"/>
<path d="M77.5183 64.7683L256.398 0.685669L312.456 193.021L143.712 271.294L77.5183 64.7683Z" fill="#0034C0"/>
<path d="M0.396057 73.9844L159.789 18.1499L256.398 0.685669L77.5183 64.7683L0.396057 73.9844Z" fill="#001F71"/>
<path d="M59.0047 250.348L0.396057 73.9844L77.5183 64.7683L143.712 271.294L59.0047 250.348Z" fill="#001C68"/>
<path d="M77.5854 64.0625L256.573 0L313 193.639L144.222 272L77.5854 64.0625Z" fill="#0034C0"/>
<path d="M0 73.4399L159.366 17.6592L256.573 0L77.5854 64.0625L0 73.4399Z" fill="#001F71"/>
<path d="M144.222 271.993L58.9711 250.832L0 73.4399L77.5855 64.0288L144.222 271.993ZM0.389348 73.9776L58.998 250.334L143.706 271.274L77.5116 64.7615L0.389348 73.9776Z" fill="#001C68"/>
</g>
<defs>
<clipPath id="clip0_132_361">
<rect width="313" height="272" fill="white"/>
</clipPath>
</defs>
</svg>
