<svg width="164" height="158" viewBox="0 0 164 158" fill="none" xmlns="http://www.w3.org/2000/svg">
<g clip-path="url(#clip0_132_371)">
<path d="M66.1597 88.599L99.6677 30.6515L150.324 74.4599L110.966 134.338L66.1597 88.599Z" fill="#002A99"/>
<path d="M15.5633 89.6337L50.3099 23.4876L99.6677 30.6515L66.1597 88.599L15.5633 89.6337Z" fill="#00268D"/>
<path d="M62.2347 142.129L104.017 73.4596L150.324 74.4599L110.966 134.338L62.2347 142.129Z" fill="#002380"/>
<path d="M15.5633 89.6337L50.3099 23.4876L104.017 73.4596L62.2346 142.129L15.5633 89.6337Z" fill="#002892"/>
<path d="M150.324 74.4599L104.017 73.4596L50.3099 23.4877L99.6677 30.6515L150.324 74.4599Z" fill="#0032B7"/>
<path d="M15.2491 89.4841L49.9818 23.3195L104.034 73.6298L62.2179 142.337L15.2491 89.4841Z" fill="#002892"/>
<path d="M62.2179 142.337L104.034 73.6298L150.622 74.6141L111.25 134.471L62.2179 142.337Z" fill="#002380"/>
<path d="M104.031 73.628L49.9818 23.3196L99.6557 30.5449L150.622 74.6116L104.031 73.628ZM99.6626 30.6531L50.3125 23.4869L104.017 73.4596L150.324 74.46L99.6548 30.6554" fill="#0032B7"/>
</g>
<defs>
<clipPath id="clip0_132_371">
<rect width="134" height="124" fill="white" transform="translate(0 38.1738) rotate(-16.5517)"/>
</clipPath>
</defs>
</svg>
