<svg width="67" height="38" viewBox="0 0 67 38" fill="none" xmlns="http://www.w3.org/2000/svg">
<path d="M3.76172 17H1.06641C0.988281 17 0.949219 16.9609 0.949219 16.8828L0.996094 0.394531C0.996094 0.332031 1.02734 0.300781 1.08984 0.300781H5.70703C7.17578 0.300781 8.33594 0.75 9.1875 1.64844C10.0469 2.53906 10.4766 3.75391 10.4766 5.29297C10.4766 6.41797 10.2539 7.39844 9.80859 8.23438C9.35547 9.0625 8.76953 9.70312 8.05078 10.1562C7.33203 10.6094 6.55078 10.8359 5.70703 10.8359H3.87891V16.8828C3.87891 16.9609 3.83984 17 3.76172 17ZM5.70703 3.14844L3.87891 3.17188V7.92969H5.70703C6.21484 7.92969 6.65625 7.6875 7.03125 7.20312C7.40625 6.71094 7.59375 6.07422 7.59375 5.29297C7.59375 4.66797 7.42578 4.15625 7.08984 3.75781C6.75391 3.35156 6.29297 3.14844 5.70703 3.14844ZM14.7305 17H12.0117C11.9492 17 11.918 16.9609 11.918 16.8828L11.9648 0.394531C11.9648 0.332031 11.9961 0.300781 12.0586 0.300781H16.9102C17.7773 0.300781 18.5742 0.511719 19.3008 0.933594C20.0273 1.35547 20.6055 1.92187 21.0352 2.63281C21.4727 3.34375 21.6914 4.14844 21.6914 5.04688C21.6914 5.63281 21.6016 6.16406 21.4219 6.64062C21.2422 7.11719 21.0312 7.51953 20.7891 7.84766C20.5547 8.17578 20.3398 8.41797 20.1445 8.57422C21.0117 9.53516 21.4453 10.6641 21.4453 11.9609L21.4688 16.8828C21.4688 16.9609 21.4297 17 21.3516 17H18.6328C18.5703 17 18.5391 16.9766 18.5391 16.9297V11.9609C18.5391 11.3828 18.3359 10.8828 17.9297 10.4609C17.5234 10.0391 17.0234 9.82812 16.4297 9.82812H14.8477L14.8242 16.8828C14.8242 16.9609 14.793 17 14.7305 17ZM16.9102 3.17188H14.8477V6.94531H16.9102C17.4023 6.94531 17.8398 6.76172 18.2227 6.39453C18.6133 6.02734 18.8086 5.57812 18.8086 5.04688C18.8086 4.53906 18.6211 4.10156 18.2461 3.73438C17.8711 3.35938 17.4258 3.17188 16.9102 3.17188ZM27.9375 17.2344C27.0859 17.2344 26.3008 17.0156 25.582 16.5781C24.8711 16.1406 24.2969 15.5586 23.8594 14.832C23.4297 14.0977 23.2148 13.293 23.2148 12.418L23.2383 4.8125C23.2383 3.92188 23.4531 3.12109 23.8828 2.41016C24.3047 1.69141 24.875 1.11719 25.5938 0.6875C26.3125 0.25 27.0938 0.03125 27.9375 0.03125C28.8125 0.03125 29.5977 0.246094 30.293 0.675781C30.9961 1.10547 31.5586 1.68359 31.9805 2.41016C32.4102 3.12891 32.625 3.92969 32.625 4.8125L32.6484 12.418C32.6484 13.293 32.4375 14.0938 32.0156 14.8203C31.5859 15.5547 31.0156 16.1406 30.3047 16.5781C29.5938 17.0156 28.8047 17.2344 27.9375 17.2344ZM27.9375 14.3398C28.4219 14.3398 28.8438 14.1445 29.2031 13.7539C29.5625 13.3555 29.7422 12.9102 29.7422 12.418L29.7188 4.8125C29.7188 4.28125 29.5508 3.83203 29.2148 3.46484C28.8789 3.09766 28.4531 2.91406 27.9375 2.91406C27.4453 2.91406 27.0234 3.09375 26.6719 3.45312C26.3203 3.8125 26.1445 4.26562 26.1445 4.8125V12.418C26.1445 12.9414 26.3203 13.3945 26.6719 13.7773C27.0234 14.1523 27.4453 14.3398 27.9375 14.3398ZM37.2773 17H34.582C34.5039 17 34.4648 16.9609 34.4648 16.8828L34.5117 0.394531C34.5117 0.332031 34.543 0.300781 34.6055 0.300781H42.293C42.3711 0.300781 42.4102 0.332031 42.4102 0.394531V3.10156C42.4102 3.16406 42.3789 3.19531 42.3164 3.19531H37.3945V6.92188H42.3164C42.3789 6.92188 42.4102 6.96094 42.4102 7.03906L42.4336 9.75781C42.4336 9.82031 42.3945 9.85156 42.3164 9.85156H37.3945V16.8828C37.3945 16.9609 37.3555 17 37.2773 17ZM6.07031 37H3.36328C3.29297 37 3.25781 36.9609 3.25781 36.8828V23.1953H0.140625C0.0625 23.1953 0.0234375 23.1562 0.0234375 23.0781L0.046875 20.3945C0.046875 20.332 0.078125 20.3008 0.140625 20.3008H9.25781C9.34375 20.3008 9.38672 20.332 9.38672 20.3945V23.0781C9.38672 23.1562 9.35547 23.1953 9.29297 23.1953H6.14062L6.16406 36.8828C6.16406 36.9609 6.13281 37 6.07031 37ZM17.6836 37H9.92578C9.86328 37 9.83203 36.9609 9.83203 36.8828L9.85547 20.3945C9.85547 20.332 9.88672 20.3008 9.94922 20.3008H17.6602C17.7227 20.3008 17.7539 20.3398 17.7539 20.418V23.1016C17.7539 23.1641 17.7227 23.1953 17.6602 23.1953H12.7383V26.9453H17.6602C17.7227 26.9453 17.7539 26.9766 17.7539 27.0391L17.7773 29.7578C17.7773 29.8203 17.7461 29.8516 17.6836 29.8516H12.7383V34.0469H17.6836C17.7461 34.0469 17.7773 34.0859 17.7773 34.1641V36.9062C17.7773 36.9688 17.7461 37 17.6836 37ZM23.9883 37.2344C23.1367 37.2344 22.3516 37.0156 21.6328 36.5781C20.9219 36.1406 20.3516 35.5586 19.9219 34.832C19.5 34.0977 19.2891 33.293 19.2891 32.418V31.3164C19.2891 31.2305 19.3281 31.1875 19.4062 31.1875H22.1016C22.1641 31.1875 22.1953 31.2305 22.1953 31.3164V32.418C22.1953 32.9414 22.3711 33.3945 22.7227 33.7773C23.0742 34.1523 23.4961 34.3398 23.9883 34.3398C24.4883 34.3398 24.9141 34.1484 25.2656 33.7656C25.6172 33.375 25.793 32.9258 25.793 32.418C25.793 31.832 25.4102 31.3203 24.6445 30.8828C24.5195 30.8047 24.3555 30.7109 24.1523 30.6016C23.957 30.4844 23.7227 30.3516 23.4492 30.2031C23.1758 30.0547 22.9102 29.9102 22.6523 29.7695C22.3945 29.6211 22.1445 29.4805 21.9023 29.3477C21.0273 28.832 20.375 28.1875 19.9453 27.4141C19.5234 26.6328 19.3125 25.7578 19.3125 24.7891C19.3125 23.8984 19.5312 23.0938 19.9688 22.375C20.4062 21.6641 20.9766 21.1016 21.6797 20.6875C22.3906 20.2656 23.1602 20.0547 23.9883 20.0547C24.8398 20.0547 25.6211 20.2656 26.332 20.6875C27.043 21.1172 27.6094 21.6875 28.0312 22.3984C28.4609 23.1094 28.6758 23.9062 28.6758 24.7891V26.7578C28.6758 26.8203 28.6445 26.8516 28.582 26.8516H25.8867C25.8242 26.8516 25.793 26.8203 25.793 26.7578L25.7695 24.7891C25.7695 24.2266 25.5938 23.7695 25.2422 23.418C24.8906 23.0664 24.4727 22.8906 23.9883 22.8906C23.4961 22.8906 23.0742 23.0781 22.7227 23.4531C22.3711 23.8281 22.1953 24.2734 22.1953 24.7891C22.1953 25.3125 22.3047 25.75 22.5234 26.1016C22.75 26.4531 23.1602 26.7891 23.7539 27.1094C23.8164 27.1406 23.9609 27.2188 24.1875 27.3438C24.4141 27.4688 24.6641 27.6094 24.9375 27.7656C25.2188 27.9141 25.4727 28.0508 25.6992 28.1758C25.9258 28.293 26.0625 28.3633 26.1094 28.3867C26.9062 28.832 27.5352 29.3789 27.9961 30.0273C28.4648 30.6758 28.6992 31.4727 28.6992 32.418C28.6992 33.332 28.4883 34.1523 28.0664 34.8789C27.6367 35.6055 27.0664 36.1797 26.3555 36.6016C25.6445 37.0234 24.8555 37.2344 23.9883 37.2344ZM35.4844 37H32.7773C32.707 37 32.6719 36.9609 32.6719 36.8828V23.1953H29.5547C29.4766 23.1953 29.4375 23.1562 29.4375 23.0781L29.4609 20.3945C29.4609 20.332 29.4922 20.3008 29.5547 20.3008H38.6719C38.7578 20.3008 38.8008 20.332 38.8008 20.3945V23.0781C38.8008 23.1562 38.7695 23.1953 38.707 23.1953H35.5547L35.5781 36.8828C35.5781 36.9609 35.5469 37 35.4844 37ZM42.8086 37H40.0898C40.0117 37 39.9727 36.9609 39.9727 36.8828L39.9961 20.3945C39.9961 20.332 40.0273 20.3008 40.0898 20.3008H42.7852C42.8477 20.3008 42.8789 20.332 42.8789 20.3945L42.9023 36.8828C42.9023 36.9609 42.8711 37 42.8086 37ZM49.4297 37.2344C48.5859 37.2344 47.8047 37.0156 47.0859 36.5781C46.3672 36.1406 45.793 35.5547 45.3633 34.8203C44.9414 34.0781 44.7305 33.2695 44.7305 32.3945L44.7773 20.3945C44.7773 20.332 44.8086 20.3008 44.8711 20.3008H47.5664C47.6289 20.3008 47.6602 20.332 47.6602 20.3945V32.3945C47.6602 32.9336 47.832 33.3945 48.1758 33.7773C48.5195 34.1523 48.9375 34.3398 49.4297 34.3398C49.9453 34.3398 50.375 34.1523 50.7188 33.7773C51.0625 33.3945 51.2344 32.9336 51.2344 32.3945V20.3945C51.2344 20.332 51.2656 20.3008 51.3281 20.3008H54.0234C54.0859 20.3008 54.1172 20.332 54.1172 20.3945L54.1641 32.3945C54.1641 33.2773 53.9531 34.0898 53.5312 34.832C53.1016 35.5664 52.5312 36.1523 51.8203 36.5898C51.1094 37.0195 50.3125 37.2344 49.4297 37.2344ZM58.8633 37H56.1445C56.082 37 56.0508 36.9609 56.0508 36.8828L56.0977 20.3945C56.0977 20.332 56.1289 20.3008 56.1914 20.3008H59.1211C59.1836 20.3008 59.2383 20.332 59.2852 20.3945L61.4766 23.5586L63.6562 20.3945C63.7031 20.332 63.7617 20.3008 63.832 20.3008H66.7734C66.8438 20.3008 66.8789 20.332 66.8789 20.3945L66.9258 36.8828C66.9258 36.9609 66.8945 37 66.832 37H64.1133C64.0508 37 64.0195 36.9609 64.0195 36.8828L63.9961 24.6367L61.4766 28.293L58.9805 24.6367L58.957 36.8828C58.957 36.9609 58.9258 37 58.8633 37Z" fill="#094298"/>
</svg>
