<svg id="Слой_1" data-name="Слой 1" xmlns="http://www.w3.org/2000/svg" viewBox="0 0 66.9 37.2"><defs><style>.cls-1{fill:#fff;}</style></defs><path class="cls-1" d="M3.76,17H1.07A.11.11,0,0,1,1,16.88L1,.39A.08.08,0,0,1,1.09.3H5.71A4.56,4.56,0,0,1,9.19,1.65a5,5,0,0,1,1.29,3.64,6.19,6.19,0,0,1-.67,2.94,5.15,5.15,0,0,1-1.76,1.93,4.34,4.34,0,0,1-2.34.68H3.88v6A.11.11,0,0,1,3.76,17Zm2-13.85-1.83,0V7.93H5.71A1.63,1.63,0,0,0,7,7.2a3,3,0,0,0,.56-1.91,2.27,2.27,0,0,0-.5-1.53A1.7,1.7,0,0,0,5.71,3.15Zm9,13.85H12q-.09,0-.09-.12L12,.39c0-.06,0-.09.1-.09h4.85A4.69,4.69,0,0,1,19.3.93,4.89,4.89,0,0,1,21,2.63a4.59,4.59,0,0,1,.65,2.42,4.5,4.5,0,0,1-.27,1.59,5.07,5.07,0,0,1-.63,1.21,3.41,3.41,0,0,1-.65.72A4.91,4.91,0,0,1,21.45,12l0,4.92a.11.11,0,0,1-.12.12H18.63c-.06,0-.09,0-.09-.07V12a2.07,2.07,0,0,0-.61-1.5,2,2,0,0,0-1.5-.63H14.85l0,7Q14.82,17,14.73,17ZM16.91,3.17H14.85V7h2.06a1.84,1.84,0,0,0,1.31-.56,1.76,1.76,0,0,0,.59-1.34,1.81,1.81,0,0,0-.56-1.32A1.85,1.85,0,0,0,16.91,3.17Zm11,14.06a4.44,4.44,0,0,1-2.36-.65,5.14,5.14,0,0,1-1.72-1.75,4.68,4.68,0,0,1-.65-2.41l0-7.61a4.54,4.54,0,0,1,.64-2.4A4.86,4.86,0,0,1,25.59.69,4.42,4.42,0,0,1,27.94,0a4.37,4.37,0,0,1,2.35.65A4.75,4.75,0,0,1,32,2.41a4.59,4.59,0,0,1,.64,2.4l0,7.61a4.73,4.73,0,0,1-.63,2.4,5,5,0,0,1-1.72,1.76A4.39,4.39,0,0,1,27.94,17.23Zm0-2.89a1.67,1.67,0,0,0,1.26-.59,1.92,1.92,0,0,0,.54-1.33l0-7.61a1.92,1.92,0,0,0-.51-1.35,1.66,1.66,0,0,0-1.27-.55,1.72,1.72,0,0,0-1.27.54,1.89,1.89,0,0,0-.53,1.36v7.61a2,2,0,0,0,.53,1.36A1.7,1.7,0,0,0,27.94,14.34ZM37.28,17h-2.7a.11.11,0,0,1-.12-.12l0-16.49c0-.06,0-.09.1-.09h7.68q.12,0,.12.09V3.1c0,.06,0,.1-.09.1H37.39V6.92h4.93q.09,0,.09.12l0,2.72c0,.06,0,.09-.11.09H37.39v7C37.39,17,37.36,17,37.28,17ZM6.07,37H3.36c-.07,0-.1,0-.1-.12V23.2H.14A.11.11,0,0,1,0,23.08l0-2.69a.08.08,0,0,1,.09-.09H9.26c.08,0,.13,0,.13.09v2.69c0,.08,0,.12-.1.12H6.14l0,13.68Q6.16,37,6.07,37Zm11.61,0H9.93c-.07,0-.1,0-.1-.12l0-16.49A.08.08,0,0,1,10,20.3h7.71q.09,0,.09.12V23.1c0,.06,0,.1-.09.1H12.74V27h4.92a.08.08,0,0,1,.09.09l0,2.72c0,.06,0,.09-.1.09H12.74v4.2h4.94c.07,0,.1,0,.1.11v2.75C17.78,37,17.75,37,17.68,37Zm6.31.23a4.44,4.44,0,0,1-2.36-.65,5,5,0,0,1-1.71-1.75,4.76,4.76,0,0,1-.63-2.41v-1.1c0-.09,0-.13.12-.13H22.1c.06,0,.1,0,.1.13v1.1a2,2,0,0,0,.52,1.36,1.72,1.72,0,0,0,2.55,0,2,2,0,0,0,.52-1.35c0-.59-.38-1.1-1.15-1.54a5.62,5.62,0,0,0-.49-.28c-.19-.12-.43-.25-.7-.4l-.8-.43-.75-.42A5.19,5.19,0,0,1,20,27.41a5.32,5.32,0,0,1-.64-2.62A4.5,4.5,0,0,1,20,22.38a4.85,4.85,0,0,1,1.71-1.69A4.47,4.47,0,0,1,24,20.05a4.52,4.52,0,0,1,2.34.64A4.88,4.88,0,0,1,28,22.4a4.53,4.53,0,0,1,.65,2.39v2c0,.06,0,.09-.1.09H25.89c-.07,0-.1,0-.1-.09l0-2a1.86,1.86,0,0,0-.53-1.37A1.72,1.72,0,0,0,24,22.89a1.7,1.7,0,0,0-1.27.56,1.9,1.9,0,0,0-.52,1.34,2.42,2.42,0,0,0,.32,1.31,3.35,3.35,0,0,0,1.23,1l.44.23.75.43c.28.14.53.28.76.41l.41.21A5.54,5.54,0,0,1,28,30a4,4,0,0,1,.7,2.39,4.84,4.84,0,0,1-.63,2.46,4.78,4.78,0,0,1-1.71,1.72A4.59,4.59,0,0,1,24,37.23ZM35.48,37h-2.7c-.07,0-.11,0-.11-.12V23.2H29.55c-.07,0-.11,0-.11-.12l0-2.69a.08.08,0,0,1,.09-.09h9.12c.09,0,.13,0,.13.09v2.69q0,.12-.09.12H35.55l0,13.68C35.58,37,35.55,37,35.48,37Zm7.33,0H40.09a.11.11,0,0,1-.12-.12l0-16.49a.08.08,0,0,1,.09-.09h2.7a.08.08,0,0,1,.09.09l0,16.49Q42.9,37,42.81,37Zm6.62.23a4.37,4.37,0,0,1-2.34-.65,5,5,0,0,1-1.73-1.76,4.84,4.84,0,0,1-.63-2.43l.05-12a.08.08,0,0,1,.09-.09h2.7a.08.08,0,0,1,.09.09v12a2,2,0,0,0,.52,1.39,1.64,1.64,0,0,0,1.25.56,1.68,1.68,0,0,0,1.29-.56,2,2,0,0,0,.51-1.39v-12c0-.06,0-.09.1-.09H54c.07,0,.1,0,.1.09l0,12a4.85,4.85,0,0,1-.63,2.44,5,5,0,0,1-1.71,1.76A4.53,4.53,0,0,1,49.43,37.23ZM58.86,37H56.14q-.09,0-.09-.12l.05-16.49a.08.08,0,0,1,.09-.09h2.93a.22.22,0,0,1,.17.09l2.19,3.17,2.18-3.17a.2.2,0,0,1,.17-.09h2.94c.07,0,.11,0,.11.09l.05,16.49c0,.08,0,.12-.1.12H64.11Q64,37,64,36.88l0-12.24-2.52,3.65L59,24.64l0,12.24C59,37,58.93,37,58.86,37Z" transform="translate(-0.02 -0.03)"/></svg>