<svg id="Слой_1" data-name="Слой 1" xmlns="http://www.w3.org/2000/svg" viewBox="0 0 474.45 440.78"><defs><style>.cls-1{isolation:isolate;}.cls-2{fill:#0037cc;}.cls-3{fill:#002894;}.cls-4{fill:#00258a;}.cls-5{fill:#0038cd;}.cls-6{fill:#0030b0;}</style></defs><g class="cls-1"><polygon class="cls-2" points="82.96 44.91 239.28 200.05 172.57 439.94 1.01 296.02 82.96 44.91"/><polygon class="cls-3" points="326 0.94 473.49 170.17 239.28 200.05 82.96 44.91 326 0.94"/><polygon class="cls-4" points="253.52 268.98 416.01 425.59 172.57 439.94 1.01 296.02 253.52 268.98"/><polygon class="cls-5" points="326 0.94 473.49 170.17 416.01 425.59 253.52 268.98 326 0.94"/><path class="cls-6" d="M766.85,331.43l244.54-44.29-72.9,269.79L684.36,584.08Zm171,224.69,72.48-268-243,44-82,251.11,252.51-27" transform="translate(-684.36 -287.14)"/><polygon class="cls-6" points="326 0.94 253.52 268.98 1.01 296.02 82.96 44.91 326 0.94"/><polygon class="cls-4" points="254.13 269.79 416.64 426.39 171.63 440.78 0 296.94 254.13 269.79"/><polygon class="cls-5" points="327.04 0 474.44 169.31 416.64 426.39 254.13 269.79 327.04 0"/></g></svg>