<svg width="119" height="114" viewBox="0 0 119 114" fill="none" xmlns="http://www.w3.org/2000/svg">
<g clip-path="url(#clip0_172_85)">
<path d="M0.236206 37.5496L49.123 0.214355L65.0663 54.1406L22.1053 92.9088L0.236206 37.5496Z" fill="#0032B7"/>
<path d="M22.1053 92.9088L65.0664 54.1406L118.779 69.1363L76.3768 113.759L22.1053 92.9088Z" fill="#002FAD"/>
<path d="M57.9468 53.8473L106.541 10.6748L118.779 69.136L76.3768 113.759L57.9468 53.8473Z" fill="#0030B1"/>
<path d="M0.236206 37.5496L49.123 0.214355L106.541 10.6751L57.9468 53.8477L0.236206 37.5496Z" fill="#002DA4"/>
<path d="M22.1053 92.9084L0.236206 37.5493L57.9468 53.8473L76.3768 113.759L22.1053 92.9084Z" fill="#00258A"/>
<path d="M58.0865 53.6946L106.699 10.5073L119 69.3526L76.6181 114L58.0865 53.6946Z" fill="#0030B1"/>
<path d="M0 37.3131L48.9071 0L106.699 10.5075L58.0865 53.6949L0 37.3131Z" fill="#002DA4"/>
<path d="M76.6181 114L22.0088 93.0069L0 37.313L58.0865 53.6972L76.6181 114ZM0.236215 37.5518L22.1028 92.9158L76.3768 113.766L57.9468 53.8474L0.236215 37.5518Z" fill="#00258A"/>
</g>
<defs>
<clipPath id="clip0_172_85">
<rect width="119" height="114" fill="white"/>
</clipPath>
</defs>
</svg>
