<svg width="180" height="105" viewBox="0 0 180 105" fill="none" xmlns="http://www.w3.org/2000/svg">
<g clip-path="url(#clip0_159_682)">
<path d="M10.0843 46.9738H2.8797C2.67086 46.9738 2.56644 46.8657 2.56644 46.6499L2.69174 1.09023C2.69174 0.917531 2.77526 0.831183 2.94233 0.831183H15.2842C19.2102 0.831183 22.3114 2.07245 24.5876 4.55498C26.8848 7.0159 28.0334 10.3727 28.0334 14.6254C28.0334 17.7339 27.4382 20.4431 26.2478 22.753C25.0366 25.0412 23.4704 26.8113 21.5492 28.0633C19.6279 29.3155 17.5396 29.9414 15.2842 29.9414H10.3976V46.6499C10.3976 46.8657 10.2932 46.9738 10.0843 46.9738ZM15.2842 8.69971L10.3976 8.76448V21.9111H15.2842C16.6416 21.9111 17.8215 21.2419 18.8239 19.9034C19.8263 18.5435 20.3275 16.7841 20.3275 14.6254C20.3275 12.8984 19.8785 11.4845 18.9805 10.3835C18.0826 9.26097 16.8505 8.69971 15.2842 8.69971ZM39.4043 46.9738H32.1368C31.9698 46.9738 31.8864 46.8657 31.8864 46.6499L32.0115 1.09023C32.0115 0.917531 32.0951 0.831183 32.2622 0.831183H45.2307C47.5485 0.831183 49.6786 1.41404 51.6208 2.57974C53.5628 3.74546 55.1083 5.31051 56.2569 7.27495C57.4264 9.23939 58.011 11.4629 58.011 13.9454C58.011 15.5644 57.7709 17.0324 57.2906 18.3492C56.8103 19.666 56.2462 20.7777 55.5991 21.6844C54.9725 22.591 54.3981 23.2603 53.8761 23.692C56.1941 26.3472 57.3531 29.4667 57.3531 33.0499L57.416 46.6499C57.416 46.8657 57.3115 46.9738 57.1027 46.9738H49.8352C49.6682 46.9738 49.5848 46.9091 49.5848 46.7795V33.0499C49.5848 31.4526 49.0416 30.071 47.9558 28.9052C46.8698 27.7397 45.5333 27.1567 43.9463 27.1567H39.7175L39.6547 46.6499C39.6547 46.8657 39.5713 46.9738 39.4043 46.9738ZM45.2307 8.76448H39.7175V19.1911H45.2307C46.5461 19.1911 47.7155 18.6838 48.739 17.6692C49.7831 16.6546 50.3052 15.4133 50.3052 13.9454C50.3052 12.5422 49.804 11.3333 48.8016 10.3188C47.7992 9.28257 46.6089 8.76448 45.2307 8.76448ZM74.707 47.6214C72.4307 47.6214 70.3321 47.0169 68.4107 45.808C66.5104 44.5991 64.9756 42.9909 63.8061 40.9832C62.6575 38.9543 62.0831 36.7307 62.0831 34.313L62.1459 13.2978C62.1459 10.8369 62.7201 8.62414 63.8687 6.65973C64.9964 4.67371 66.5209 3.08705 68.4422 1.89975C70.3633 0.690867 72.4518 0.0864258 74.707 0.0864258C77.0459 0.0864258 79.1448 0.680074 81.0033 1.86737C82.8828 3.05467 84.3863 4.6521 85.5141 6.65973C86.6627 8.64575 87.2369 10.8584 87.2369 13.2978L87.2994 34.313C87.2994 36.7307 86.7357 38.9435 85.6079 40.9509C84.4593 42.9802 82.9349 44.5991 81.0346 45.808C79.1344 47.0169 77.0251 47.6214 74.707 47.6214ZM74.707 39.6232C76.0018 39.6232 77.1296 39.0836 78.09 38.0043C79.0507 36.9034 79.531 35.673 79.531 34.313L79.4685 13.2978C79.4685 11.8298 79.0194 10.5886 78.1213 9.57398C77.2234 8.5594 76.0852 8.05209 74.707 8.05209C73.3913 8.05209 72.2636 8.5486 71.324 9.54159C70.3842 10.5346 69.9143 11.7867 69.9143 13.2978V34.313C69.9143 35.7592 70.3842 37.0112 71.324 38.0689C72.2636 39.1051 73.3913 39.6232 74.707 39.6232ZM99.6726 46.9738H92.468C92.2592 46.9738 92.1547 46.8657 92.1547 46.6499L92.2801 1.09023C92.2801 0.917531 92.3637 0.831183 92.5308 0.831183H113.08C113.289 0.831183 113.393 0.917531 113.393 1.09023V8.57018C113.393 8.74288 113.309 8.82922 113.142 8.82922H99.9859V19.1263H113.142C113.309 19.1263 113.393 19.2343 113.393 19.4501L113.456 26.9624C113.456 27.1351 113.351 27.2215 113.142 27.2215H99.9859V46.6499C99.9859 46.8657 99.8816 46.9738 99.6726 46.9738ZM16.2553 102.237H9.01931C8.83137 102.237 8.73738 102.129 8.73738 101.913V64.0924H0.405043C0.196212 64.0924 0.0917969 63.9843 0.0917969 63.7685L0.154446 56.3533C0.154446 56.1806 0.237978 56.0944 0.405043 56.0944H24.7756C25.0053 56.0944 25.1202 56.1806 25.1202 56.3533V63.7685C25.1202 63.9843 25.0366 64.0924 24.8696 64.0924H16.4432L16.5059 101.913C16.5059 102.129 16.4224 102.237 16.2553 102.237ZM47.298 102.237H26.5611C26.394 102.237 26.3105 102.129 26.3105 101.913L26.3731 56.3533C26.3731 56.1806 26.4567 56.0944 26.6237 56.0944H47.2355C47.4025 56.0944 47.4859 56.2022 47.4859 56.4182V63.8335C47.4859 64.0061 47.4025 64.0924 47.2355 64.0924H34.079V74.4542H47.2355C47.4025 74.4542 47.4859 74.5407 47.4859 74.7134L47.5485 82.2256C47.5485 82.3983 47.4651 82.4848 47.298 82.4848H34.079V94.077H47.298C47.4651 94.077 47.5485 94.1848 47.5485 94.4009V101.978C47.5485 102.151 47.4651 102.237 47.298 102.237ZM64.1507 102.885C61.8743 102.885 59.7757 102.28 57.8543 101.071C55.9541 99.8623 54.4296 98.2541 53.281 96.2464C52.1533 94.2174 51.5896 91.9939 51.5896 89.5761V86.5322C51.5896 86.2949 51.6938 86.1761 51.9026 86.1761H59.1075C59.2745 86.1761 59.3579 86.2949 59.3579 86.5322V89.5761C59.3579 91.0224 59.8278 92.2744 60.7677 93.3321C61.7073 94.3683 62.835 94.8864 64.1507 94.8864C65.4872 94.8864 66.6254 94.3575 67.5649 93.2998C68.5048 92.2205 68.9747 90.9793 68.9747 89.5761C68.9747 87.9569 67.9515 86.543 65.9047 85.3341C65.5706 85.1183 65.1322 84.8592 64.5891 84.5571C64.067 84.2333 63.4407 83.8663 62.7096 83.456C61.9788 83.046 61.2689 82.6467 60.5795 82.2579C59.8904 81.8479 59.2221 81.4594 58.5747 81.0924C56.2358 79.6674 54.4922 77.8866 53.3436 75.7496C52.2158 73.5907 51.6521 71.173 51.6521 68.4963C51.6521 66.0351 52.2367 63.8119 53.4064 61.8257C54.5756 59.8614 56.1003 58.3071 57.9797 57.1629C59.88 55.9971 61.9371 55.4144 64.1507 55.4144C66.4268 55.4144 68.5152 55.9971 70.4155 57.1629C72.316 58.3502 73.83 59.9261 74.9575 61.8904C76.1061 63.855 76.6805 66.0567 76.6805 68.4963V73.9361C76.6805 74.1088 76.5968 74.1953 76.4298 74.1953H69.2252C69.0581 74.1953 68.9747 74.1088 68.9747 73.9361L68.9119 68.4963C68.9119 66.942 68.4422 65.679 67.5024 64.7077C66.5626 63.7362 65.4455 63.2504 64.1507 63.2504C62.835 63.2504 61.7073 63.7685 60.7677 64.8047C59.8278 65.8409 59.3579 67.0713 59.3579 68.4963C59.3579 69.9425 59.6503 71.1514 60.2349 72.1229C60.8407 73.0942 61.9371 74.0226 63.5241 74.9076C63.6912 74.9938 64.0774 75.2099 64.6831 75.5553C65.2888 75.9007 65.9571 76.2892 66.6879 76.7208C67.4398 77.1311 68.1185 77.5089 68.724 77.8543C69.3297 78.1781 69.6951 78.3724 69.8204 78.437C71.9503 79.6674 73.6317 81.1786 74.8637 82.9703C76.1165 84.7622 76.7431 86.9641 76.7431 89.5761C76.7431 92.1017 76.1793 94.3683 75.0516 96.376C73.903 98.3837 72.3785 99.9703 70.4783 101.136C68.5777 102.302 66.4687 102.885 64.1507 102.885ZM94.8801 102.237H87.644C87.456 102.237 87.3622 102.129 87.3622 101.913V64.0924H79.0298C78.8211 64.0924 78.7166 63.9843 78.7166 63.7685L78.7791 56.3533C78.7791 56.1806 78.8628 56.0944 79.0298 56.0944H103.4C103.63 56.0944 103.745 56.1806 103.745 56.3533V63.7685C103.745 63.9843 103.661 64.0924 103.494 64.0924H95.068L95.1306 101.913C95.1306 102.129 95.0472 102.237 94.8801 102.237ZM114.458 102.237H107.191C106.982 102.237 106.877 102.129 106.877 101.913L106.94 56.3533C106.94 56.1806 107.023 56.0944 107.191 56.0944H114.395C114.562 56.0944 114.646 56.1806 114.646 56.3533L114.708 101.913C114.708 102.129 114.625 102.237 114.458 102.237ZM132.156 102.885C129.901 102.885 127.813 102.28 125.891 101.071C123.97 99.8623 122.435 98.2433 121.287 96.2141C120.159 94.1633 119.595 91.929 119.595 89.5112L119.72 56.3533C119.72 56.1806 119.804 56.0944 119.971 56.0944H127.176C127.343 56.0944 127.426 56.1806 127.426 56.3533V89.5112C127.426 91.0008 127.886 92.2744 128.805 93.3321C129.723 94.3683 130.841 94.8864 132.156 94.8864C133.535 94.8864 134.683 94.3683 135.602 93.3321C136.521 92.2744 136.98 91.0008 136.98 89.5112V56.3533C136.98 56.1806 137.064 56.0944 137.231 56.0944H144.435C144.603 56.0944 144.686 56.1806 144.686 56.3533L144.812 89.5112C144.812 91.9505 144.248 94.1956 143.12 96.2464C141.971 98.2757 140.447 99.8946 138.547 101.103C136.646 102.291 134.516 102.885 132.156 102.885ZM157.373 102.237H150.105C149.938 102.237 149.855 102.129 149.855 101.913L149.98 56.3533C149.98 56.1806 150.064 56.0944 150.231 56.0944H158.062C158.229 56.0944 158.375 56.1806 158.5 56.3533L164.358 65.0962L170.184 56.3533C170.31 56.1806 170.466 56.0944 170.654 56.0944H178.517C178.705 56.0944 178.799 56.1806 178.799 56.3533L178.924 101.913C178.924 102.129 178.84 102.237 178.673 102.237H171.406C171.239 102.237 171.155 102.129 171.155 101.913L171.093 68.0752L164.358 78.1781L157.686 68.0752L157.623 101.913C157.623 102.129 157.54 102.237 157.373 102.237Z" fill="#FAFCFF"/>
</g>
<defs>
<clipPath id="clip0_159_682">
<rect width="179.093" height="105" fill="white" transform="translate(0.0291748)"/>
</clipPath>
</defs>
</svg>
